0
SECTION
2
ENTITIES
0
LINE
8
0
10
0.000
20
60.000
30
0.0
11
25.000
21
60.000
31
0.0
0
LINE
8
0
10
25.000
20
60.000
30
0.0
11
25.000
21
20.000
31
0.0
0
LINE
8
0
10
25.000
20
20.000
30
0.0
11
77.500
21
20.000
31
0.0
0
LINE
8
0
10
77.500
20
20.000
30
0.0
11
65.000
21
-5.000
31
0.0
0
LINE
8
0
10
65.000
20
-5.000
30
0.0
11
77.500
21
-5.000
31
0.0
0
LINE
8
0
10
77.500
20
-5.000
30
0.0
11
77.500
21
-25.000
31
0.0
0
LINE
8
0
10
77.500
20
-25.000
30
0.0
11
65.000
21
-25.000
31
0.0
0
LINE
8
0
10
65.000
20
-25.000
30
0.0
11
65.000
21
-10.000
31
0.0
0
LINE
8
0
10
65.000
20
-10.000
30
0.0
11
31.500
21
-10.000
31
0.0
0
LINE
8
0
10
31.500
20
-10.000
30
0.0
11
31.500
21
-40.000
31
0.0
0
LINE
8
0
10
31.500
20
-40.000
30
0.0
11
11.200
21
-40.000
31
0.0
0
LINE
8
0
10
11.200
20
-40.000
30
0.0
11
11.200
21
-10.000
31
0.0
0
LINE
8
0
10
11.200
20
-10.000
30
0.0
11
25.000
21
-10.000
31
0.0
0
LINE
8
0
10
25.000
20
-10.000
30
0.0
11
25.000
21
0.000
31
0.0
0
LINE
8
0
10
25.000
20
0.000
30
0.0
11
-25.000
21
0.000
31
0.0
0
LINE
8
0
10
-25.000
20
0.000
30
0.0
11
-25.000
21
-10.000
31
0.0
0
LINE
8
0
10
-25.000
20
-10.000
30
0.0
11
-11.200
21
-10.000
31
0.0
0
LINE
8
0
10
-11.200
20
-10.000
30
0.0
11
-11.200
21
-40.000
31
0.0
0
LINE
8
0
10
-11.200
20
-40.000
30
0.0
11
-31.500
21
-40.000
31
0.0
0
LINE
8
0
10
-31.500
20
-40.000
30
0.0
11
-31.500
21
-10.000
31
0.0
0
LINE
8
0
10
-31.500
20
-10.000
30
0.0
11
-65.000
21
-10.000
31
0.0
0
LINE
8
0
10
-65.000
20
-10.000
30
0.0
11
-65.000
21
-25.000
31
0.0
0
LINE
8
0
10
-65.000
20
-25.000
30
0.0
11
-77.500
21
-25.000
31
0.0
0
LINE
8
0
10
-77.500
20
-25.000
30
0.0
11
-77.500
21
-5.000
31
0.0
0
LINE
8
0
10
-77.500
20
-5.000
30
0.0
11
-65.000
21
-5.000
31
0.0
0
LINE
8
0
10
-65.000
20
-5.000
30
0.0
11
-77.500
21
20.000
31
0.0
0
LINE
8
0
10
-77.500
20
20.000
30
0.0
11
-25.000
21
20.000
31
0.0
0
LINE
8
0
10
-25.000
20
20.000
30
0.0
11
-25.000
21
60.000
31
0.0
0
LINE
8
0
10
-25.000
20
60.000
30
0.0
11
0.000
21
60.000
31
0.0
0
LINE
8
0
10
0.000
20
60.000
30
0.0
11
0.000
21
60.000
31
0.0
0
ENDSEC
0
EOF
